<svg height="512pt" viewBox="0 0 512 512" width="512pt" xmlns="http://www.w3.org/2000/svg"><path d="m450.207031 70.621094h35.308594c14.628906 0 26.484375 11.855468 26.484375 26.480468v308.96875c0 14.625-11.855469 26.480469-26.484375 26.480469h-459.03125c-14.628906 0-26.484375-11.855469-26.484375-26.480469v-308.96875c0-14.625 11.855469-26.480468 26.484375-26.480468zm0 0" fill="#a5a5a4"/><path d="m141.242188 476.691406h229.515624c14.625 0 26.484376 11.855469 26.484376 26.480469 0 4.875-3.953126 8.828125-8.828126 8.828125h-264.828124c-4.875 0-8.828126-3.953125-8.828126-8.828125 0-14.625 11.859376-26.480469 26.484376-26.480469zm0 0" fill="#a5a5a4"/><path d="m353.101562 476.691406h-194.203124l17.652343-44.140625h158.898438zm0 0" fill="#5e5f62"/><path d="m476.691406 158.898438v185.378906c-.03125 9.738281-7.917968 17.625-17.65625 17.652344h-406.070312c-9.738282-.027344-17.625-7.914063-17.65625-17.652344v-185.378906zm0 0" fill="#90bae1"/><path d="m476.691406 123.585938v101.605468c-192.972656-43.34375-298.375 58.527344-349.042968 136.738282h-74.683594c-9.738282-.027344-17.625-7.914063-17.65625-17.652344v-220.691406c.03125-9.738282 7.917968-17.625 17.65625-17.65625h406.070312c9.738282.03125 17.625 7.917968 17.65625 17.65625zm0 0" fill="#b0d3f0"/><path d="m300.136719 406.070312h-88.273438c-4.875 0-8.828125-3.953124-8.828125-8.828124s3.953125-8.828126 8.828125-8.828126h88.273438c4.875 0 8.828125 3.953126 8.828125 8.828126s-3.953125 8.828124-8.828125 8.828124zm0 0" fill="#5e5f62"/><path d="m282.03125 233.984375v12.21875c1.226562 15.121094 13.332031 27.074219 28.46875 28.105469l24.507812 2.402344c14.730469 1.136718 26.1875 13.273437 26.480469 28.042968v11.273438c-.058593 2.878906-1.261719 5.613281-3.34375 7.597656-2.078125 1.988281-4.867187 3.066406-7.742187 2.996094h-191.726563c-2.871093.0625-5.652343-1.015625-7.726562-3.003906-2.074219-1.988282-3.273438-4.71875-3.335938-7.589844v-11.273438c.292969-14.769531 11.753907-26.90625 26.484375-28.042968l20.410156-2.402344c14.742188-1.164063 26.195313-13.320313 26.480469-28.105469v-12.21875zm0 0" fill="#f09372"/><path d="m251.480469 132.414062h7.398437c19.355469.144532 35.054688 15.710938 35.371094 35.0625v4.324219c3.609375-1.765625 2.648438-2.046875 6.109375-.695312 7.757813 3.210937 10.328125 14.195312 5.683594 24.539062-3.664063 8.183594-5.921875 13.621094-12.527344 13.914063-3.476563 19.921875-20.160156 39.722656-42.035156 39.722656s-38.550781-19.816406-42.027344-39.722656c-6.605469-.292969-8.828125-5.730469-12.527344-13.914063-4.644531-10.34375-2.082031-21.328125 5.675781-24.539062 3.425782-1.351563 2.507813-1.050781 6.117188.695312v-4.324219c.316406-19.351562 16.019531-34.917968 35.371094-35.0625zm0 0" fill="#fdd7ad"/><path d="m361.464844 304.753906v11.273438c-.0625 2.871094-1.261719 5.601562-3.335938 7.589844-2.074218 1.988281-4.855468 3.066406-7.726562 3.003906h-191.726563c-2.871093.0625-5.652343-1.015625-7.726562-3.003906-2.074219-1.988282-3.273438-4.71875-3.335938-7.589844v-11.273438c.292969-14.769531 11.753907-26.90625 26.484375-28.042968l15.640625-1.820313c10.332031 12.457031 34.09375 21.1875 61.796875 21.1875 27.917969 0 51.816406-8.882813 62.019532-21.453125l21.503906 2.109375c14.691406 1.175781 26.101562 13.285156 26.40625 28.019531zm0 0" fill="#285680"/><path d="m512 8.828125v105.929687c0 4.875-3.953125 8.828126-8.828125 8.828126h-103.28125c-1.746094 0-3.449219.515624-4.898437 1.484374l-37.015626 24.714844c-2.714843 1.796875-6.199218 1.957032-9.0625.410156-2.867187-1.546874-4.648437-4.542968-4.636718-7.796874v-9.984376c0-4.875-3.953125-8.828124-8.828125-8.828124h-8.828125c-4.875 0-8.828125-3.953126-8.828125-8.828126v-105.929687c0-4.875 3.953125-8.828125 8.828125-8.828125h176.550781c4.875 0 8.828125 3.953125 8.828125 8.828125zm0 0" fill="#24ae5f"/><path d="m512 8.828125v105.929687c0 4.875-3.953125 8.828126-8.828125 8.828126h-88.273437v-123.585938h88.273437c4.875 0 8.828125 3.953125 8.828125 8.828125zm0 0" fill="#4fba6f"/><g fill="#fff"><path d="m476.691406 44.136719h-123.589844c-4.875 0-8.824218-3.949219-8.824218-8.828125 0-4.875 3.949218-8.824219 8.824218-8.824219h123.589844c4.875 0 8.824219 3.949219 8.824219 8.824219 0 4.878906-3.949219 8.828125-8.824219 8.828125zm0 0"/><path d="m476.691406 79.449219h-123.589844c-4.875 0-8.824218-3.953125-8.824218-8.828125s3.949218-8.828125 8.824218-8.828125h123.589844c4.875 0 8.824219 3.953125 8.824219 8.828125s-3.949219 8.828125-8.824219 8.828125zm0 0"/></g></svg>